HIERARCHY
ROOT hip
{
  OFFSET 0 0 0
  CHANNELS 6 Xposition Yposition Zposition Zrotation Yrotation Xrotation
  JOINT abdomen
  {
    OFFSET 0 20.6881 -0.73152
    CHANNELS 3 Zrotation Xrotation Yrotation
    JOINT chest
    {
      OFFSET 0 11.7043 -0.48768
      CHANNELS 3 Zrotation Xrotation Yrotation
      JOINT neck
      {
        OFFSET 0 22.1894 -2.19456
        CHANNELS 3 Zrotation Xrotation Yrotation
        JOINT head
        {
          OFFSET -0.24384 7.07133 1.2192
          CHANNELS 3 Zrotation Xrotation Yrotation
          JOINT leftEye
          {
            OFFSET 4.14528 8.04674 8.04672
            CHANNELS 3 Zrotation Xrotation Yrotation
            End Site
            {
              OFFSET 1 0 0
            }
          }
          JOINT rightEye
          {
            OFFSET -3.6576 8.04674 8.04672
            CHANNELS 3 Zrotation Xrotation Yrotation
            End Site
            {
              OFFSET 1 0 0
            }
          }
        }
      }
      JOINT rCollar
      {
        OFFSET -2.68224 19.2634 -4.8768
        CHANNELS 3 Zrotation Xrotation Yrotation
        JOINT rShldr
        {
          OFFSET -8.77824 -1.95073 1.46304
          CHANNELS 3 Zrotation Xrotation Yrotation
          JOINT rForeArm
          {
            OFFSET -28.1742 -1.7115 0.48768
            CHANNELS 3 Zrotation Xrotation Yrotation
            JOINT rHand
            {
              OFFSET -22.5879 0.773209 7.07136
              CHANNELS 3 Zrotation Xrotation Yrotation
              JOINT rThumb1
              {
                OFFSET -1.2192 -0.487915 3.41376
                CHANNELS 3 Zrotation Xrotation Yrotation
                JOINT rThumb2
                {
                  OFFSET -3.37035 -0.52449 3.41376
                  CHANNELS 3 Zrotation Xrotation Yrotation
                  End Site
                  {
                    OFFSET -1.78271 -1.18214 1.43049
                  }
                }
              }
              JOINT rIndex1
              {
                OFFSET -7.75947 0.938293 5.60832
                CHANNELS 3 Zrotation Xrotation Yrotation
                JOINT rIndex2
                {
                  OFFSET -2.54057 -0.884171 1.56538
                  CHANNELS 3 Zrotation Xrotation Yrotation
                  End Site
                  {
                    OFFSET -1.62519 -0.234802 1.16502
                  }
                }
              }
              JOINT rMid1
              {
                OFFSET -8.24714 1.18213 3.41376
                CHANNELS 3 Zrotation Xrotation Yrotation
                JOINT rMid2
                {
                  OFFSET -3.10165 -0.590103 1.0647
                  CHANNELS 3 Zrotation Xrotation Yrotation
                  End Site
                  {
                    OFFSET -2.48547 -0.328903 0.83742
                  }
                }
              }
              JOINT rRing1
              {
                OFFSET -8.82822 0.546677 1.51678
                CHANNELS 3 Zrotation Xrotation Yrotation
                JOINT rRing2
                {
                  OFFSET -2.60934 -0.819778 -0.0198488
                  CHANNELS 3 Zrotation Xrotation Yrotation
                  End Site
                  {
                    OFFSET -2.33842 -0.294052 0.168128
                  }
                }
              }
              JOINT rPinky1
              {
                OFFSET -8.27202 -0.0477905 -0.4584
                CHANNELS 3 Zrotation Xrotation Yrotation
                JOINT rPinky2
                {
                  OFFSET -1.82734 -0.647385 -0.700984
                  CHANNELS 3 Zrotation Xrotation Yrotation
                  End Site
                  {
                    OFFSET -1.69225 -0.51767 -0.607171
                  }
                }
              }
            }
          }
        }
      }
      JOINT lCollar
      {
        OFFSET 2.68224 19.2634 -4.8768
        CHANNELS 3 Zrotation Xrotation Yrotation
        JOINT lShldr
        {
          OFFSET 8.77824 -1.95073 1.46304
          CHANNELS 3 Zrotation Xrotation Yrotation
          JOINT lForeArm
          {
            OFFSET 28.1742 -1.7115 0.48768
            CHANNELS 3 Zrotation Xrotation Yrotation
            JOINT lHand
            {
              OFFSET 22.5879 0.773209 7.07136
              CHANNELS 3 Zrotation Xrotation Yrotation
              JOINT lThumb1
              {
                OFFSET 1.2192 -0.487915 3.41376
                CHANNELS 3 Zrotation Xrotation Yrotation
                JOINT lThumb2
                {
                  OFFSET 3.37035 -0.52449 3.41376
                  CHANNELS 3 Zrotation Xrotation Yrotation
                  End Site
                  {
                    OFFSET 1.78271 -1.18214 1.43049
                  }
                }
              }
              JOINT lIndex1
              {
                OFFSET 7.75947 0.938293 5.60832
                CHANNELS 3 Zrotation Xrotation Yrotation
                JOINT lIndex2
                {
                  OFFSET 2.54057 -0.884171 1.56538
                  CHANNELS 3 Zrotation Xrotation Yrotation
                  End Site
                  {
                    OFFSET 1.62519 -0.234802 1.16502
                  }
                }
              }
              JOINT lMid1
              {
                OFFSET 8.24714 1.18213 3.41376
                CHANNELS 3 Zrotation Xrotation Yrotation
                JOINT lMid2
                {
                  OFFSET 3.10165 -0.590103 1.0647
                  CHANNELS 3 Zrotation Xrotation Yrotation
                  End Site
                  {
                    OFFSET 2.48547 -0.328903 0.83742
                  }
                }
              }
              JOINT lRing1
              {
                OFFSET 8.82822 0.546677 1.51678
                CHANNELS 3 Zrotation Xrotation Yrotation
                JOINT lRing2
                {
                  OFFSET 2.60934 -0.819778 -0.0198488
                  CHANNELS 3 Zrotation Xrotation Yrotation
                  End Site
                  {
                    OFFSET 2.33842 -0.294052 0.168128
                  }
                }
              }
              JOINT lPinky1
              {
                OFFSET 8.27202 -0.0477905 -0.4584
                CHANNELS 3 Zrotation Xrotation Yrotation
                JOINT lPinky2
                {
                  OFFSET 1.82734 -0.647385 -0.700984
                  CHANNELS 3 Zrotation Xrotation Yrotation
                  End Site
                  {
                    OFFSET 1.69225 -0.51767 -0.607171
                  }
                }
              }
            }
          }
        }
      }
    }
  }
  JOINT rButtock
  {
    OFFSET -8.77824 4.35084 1.2192
    CHANNELS 3 Zrotation Xrotation Yrotation
    JOINT rThigh
    {
      OFFSET 0 -1.70687 -2.19456
      CHANNELS 3 Zrotation Xrotation Yrotation
      JOINT rShin
      {
        OFFSET 0 -36.8199 0.73152
        CHANNELS 3 Zrotation Xrotation Yrotation
        JOINT rFoot
        {
          OFFSET 0.73152 -45.1104 -5.12064
          CHANNELS 3 Zrotation Xrotation Yrotation
          End Site
          {
            OFFSET -1.1221 -3.69964 12.103
          }
        }
      }
    }
  }
  JOINT lButtock
  {
    OFFSET 8.77824 4.35084 1.2192
    CHANNELS 3 Zrotation Xrotation Yrotation
    JOINT lThigh
    {
      OFFSET 0 -1.70687 -2.19456
      CHANNELS 3 Zrotation Xrotation Yrotation
      JOINT lShin
      {
        OFFSET 0 -36.8199 0.73152
        CHANNELS 3 Zrotation Xrotation Yrotation
        JOINT lFoot
        {
          OFFSET -0.73152 -45.1104 -5.12064
          CHANNELS 3 Zrotation Xrotation Yrotation
          End Site
          {
            OFFSET 1.1221 -3.69964 12.103
          }
        }
      }
    }
  }
}
MOTION
Frames:	8
Frame Time:	0.00833333
-0.10378547 66.52408 0.01576189 -3.213309 -3.6728964 4.043703 0.89531446 10.789745 -6.337538 4.6322737 -8.729144 -1.599421 -0.18534972 9.95648 3.4531798 -0.70080227 -17.448553 5.7963557 -0.001056622 -0.014130333 0.083534755 -0.012472627 -0.06922506 -0.041859254 -0.016201831 0.07011561 0.072490096 106.447525 46.9559 -53.08394 -27.882019 -40.868088 85.4267 -25.883867 -74.92773 -29.739513 0.05624909 -0.02253557 0.024488166 0.005949594 -0.01316309 0.037877865 0.01731781 -0.030821048 -0.060001392 7.7920117 5.4585686 0.40121618 -0.034545694 0.042076543 0.07141353 2.9219732 0.9994302 0.14935705 -0.03717044 0.011343753 -0.03088951 10.288337 0.7306001 0.044224106 0.008253831 -0.07930426 0.08191518 2.2630763 -0.677306 -0.21387108 0.09040332 0.0670536 -0.015596536 11.516802 43.209843 -108.71062 23.516365 -20.618439 -50.251575 0.98283243 27.27077 -4.4328575 -0.0037380469 -0.02341986 0.10410795 0.04223223 0.006478539 -0.06938503 0.09566051 0.051486604 -0.0065253335 -7.7622223 5.5070133 -0.3278014 -0.05018533 -0.03403561 -0.046598535 -2.9157143 0.9083013 -0.11248875 -0.028692998 0.019402383 0.0654338 -10.281251 0.73060626 -0.023611318 -0.08680448 0.022953955 -0.015374659 -2.2592344 -0.65138656 0.17906651 -0.04565685 -0.01548934 -0.03807747 -16.26372 -45.51556 -11.7960415 -3.099084 74.778694 3.623932 -7.733249 -22.324291 -13.205636 0.015554176 0.053280957 -0.06808185 31.694332 -42.487766 22.320276 2.1513336 70.863304 -2.8342242 -1.6709591 -27.572168 -7.732832
-0.19896813 69.70772 -0.073974304 -3.2507498 -4.0414886 3.887447 0.43471113 10.477646 -6.380001 4.516342 -8.818256 -1.5495394 0.047210883 9.466356 3.1722682 -0.55281764 -17.15815 5.5431824 -0.02750878 -0.018066715 -0.029048711 -0.04781613 -0.0055239657 -0.025235344 -0.01465256 -0.008830915 0.063315205 105.05702 47.080082 -53.562366 -28.186766 -40.8705 85.53161 -25.448175 -74.47905 -30.318825 0.055420723 0.01496131 -0.02364178 -0.05765156 0.026696369 0.05898682 0.017472796 0.014774425 0.0054758973 7.8216524 5.476448 0.45440945 -0.026433336 0.037910096 0.039529167 2.8859382 0.9743678 0.18801801 -0.017803237 0.011153006 -0.022221582 10.260964 0.7431336 0.0065720486 -0.04138147 -0.06507741 0.09880457 2.2064958 -0.7032022 -0.24518947 0.12912574 0.013490192 -0.043945435 7.63145 43.416233 -104.99413 24.170979 -19.869406 -50.26869 1.1720315 29.126469 -4.3175163 0.010853734 -0.009087424 0.08083773 0.07939246 -0.06157574 -0.060343355 0.03424206 0.05465484 0.04352762 -7.7904534 5.464872 -0.3027083 0.015019407 -0.030865027 -0.064515114 -2.892372 0.921766 -0.06536681 -0.048477415 0.049035773 0.027206492 -10.324997 0.70306766 0.019794084 -0.09234188 0.008589832 0.05922786 -2.194469 -0.64949596 0.18538861 -0.073830605 0.010324293 0.012449405 -15.983856 -45.99448 -12.061254 -3.3996627 75.73059 4.5358906 -8.470901 -22.038286 -12.974198 -0.012720835 0.03271476 -0.012023911 34.987213 -42.47132 20.843977 2.0394802 71.158226 -2.8915188 -2.5740712 -28.573177 -6.899737
-0.059079565 69.59437 -0.17977181 -3.2769861 -3.628564 3.522178 0.14753716 10.37021 -6.056992 4.3715315 -9.12771 -1.4101425 0.038888503 9.142268 3.0268228 -0.4062578 -16.727318 5.5620313 -0.06084235 -0.029758941 -0.10022837 -0.0670111 -0.012652528 0.03760172 0.01810393 -0.019446237 0.03908591 105.560936 46.331474 -53.467957 -28.263126 -40.72959 85.65469 -25.638485 -74.20261 -29.881649 0.047513265 0.040237766 -0.043116618 -0.068957336 0.035221078 0.11218364 0.010207257 -0.011365861 0.048520803 7.8161697 5.515632 0.45488137 -0.056969456 0.027529273 0.03971489 2.8393173 0.99475485 0.18686983 -0.021408955 0.016482498 -0.044482537 10.277883 0.7519831 0.013467478 -0.08687172 -0.087799825 0.0746297 2.1772406 -0.6906301 -0.22282074 0.11417747 -0.029503668 -0.055281833 2.4997432 42.92801 -101.1488 23.891907 -19.434381 -49.76423 1.0635765 28.704021 -4.756941 0.04590741 -0.016846454 0.07445718 0.13617113 -0.0732697 -0.07438482 0.033500988 0.04536375 0.095204055 -7.7735195 5.4859996 -0.30162045 0.03801511 -0.04139642 -0.04407174 -2.8872619 0.9530738 -0.053190965 -0.08531114 0.034746766 0.011929177 -10.326189 0.7297079 0.056923926 -0.08854144 0.0062009967 0.11389218 -2.1820858 -0.6953793 0.20742618 -0.09174664 -0.017807262 0.01671487 -16.331987 -46.045208 -12.124791 -3.769768 76.317314 4.8267508 -8.336066 -21.719261 -13.503767 -0.04880507 0.038720913 0.0080786245 34.600475 -43.21322 21.063997 2.4002542 71.45504 -2.71546 -3.0331914 -28.920334 -6.293041
0.116812624 69.3979 -0.21132557 -3.5654585 -3.492532 3.5054083 0.23019364 10.403421 -5.6965246 4.23846 -9.157693 -1.3284125 0.019967983 9.015868 2.932888 -0.49922532 -16.23809 5.458895 -0.054366264 -0.01063175 -0.06730009 -0.07146266 -0.027124403 0.08163868 0.04474048 -0.018622441 0.028225329 105.67015 46.212463 -53.626728 -28.189959 -40.617714 85.564255 -25.24953 -74.1146 -29.470573 0.035152666 0.029046055 -0.080911346 -0.07629938 0.053051334 0.11773391 0.0046325647 -0.03459886 0.07617843 7.8080926 5.5356393 0.4258453 -0.061967835 0.018231872 0.050293464 2.8305228 0.99726063 0.19026776 -0.05016015 0.03785819 -0.06610821 10.261803 0.7402388 0.007682029 -0.106529735 -0.07366941 0.049674407 2.1727343 -0.6765416 -0.21488777 0.097710066 -0.02430208 -0.048961 -2.6470134 42.763317 -98.112335 23.625227 -18.896223 -49.09287 1.065468 28.384212 -4.670208 0.08234975 -0.028937785 0.04575734 0.12933043 -0.05515998 -0.09475704 0.045127995 0.010837585 0.078421615 -7.7628183 5.498717 -0.31086263 0.025216147 -0.0474728 -0.036140483 -2.9018252 0.9639346 -0.060732044 -0.08066228 0.03205329 0.020576455 -10.311589 0.7656832 0.056280658 -0.09314952 -0.017160764 0.105054155 -2.2133129 -0.7015998 0.23295431 -0.087182134 -0.04593198 -0.017758038 -16.836601 -46.30405 -11.818888 -3.7580192 76.45792 4.8092813 -8.365093 -21.74857 -13.498109 -0.039365064 0.031267278 0.006865632 33.89632 -43.590664 21.015165 2.7261376 72.21172 -2.6920395 -2.880851 -29.02863 -5.998353
0.3222257 68.91185 -0.094058365 -3.6242282 -3.0637667 3.5542114 0.29120708 10.274368 -5.5839868 4.062361 -9.062581 -1.3283103 -0.055311568 8.813047 2.8402264 -0.6382335 -15.624545 5.387315 -0.032585993 0.016655983 -0.023554474 -0.05348152 -0.031560734 0.10696632 0.050302025 -0.01947774 0.026989296 105.888824 45.845436 -54.070244 -28.174755 -40.74559 85.51938 -23.742174 -73.781586 -29.684881 0.024625616 0.00878874 -0.1164311 -0.08823244 0.05782209 0.10140252 0.0009045197 -0.04591151 0.09067185 7.8061075 5.5468483 0.4028525 -0.05081387 0.021064153 0.06383526 2.8378546 0.99905735 0.18227571 -0.07871468 0.06020904 -0.074236356 10.247669 0.72458 0.009136402 -0.11849155 -0.044863228 0.039615404 2.187608 -0.68387127 -0.19713901 0.069313966 0.012453261 -0.031978816 -6.521123 42.916878 -94.907166 23.268728 -18.166471 -47.986153 1.1430718 28.67085 -4.681695 0.10484597 -0.035465 0.011181899 0.10488463 -0.03622755 -0.109366804 0.06357962 -0.021478938 0.056560963 -7.743218 5.4879413 -0.33229598 0.006959753 -0.054900423 -0.043010976 -2.9221222 0.9619511 -0.06990006 -0.07635728 0.04189427 0.032546643 -10.304526 0.788583 0.048919834 -0.096747704 -0.030782796 0.0742026 -2.233966 -0.6989687 0.25039527 -0.07030319 -0.058188826 -0.067725286 -17.187725 -46.236553 -11.768235 -3.541562 76.60974 4.5202637 -8.415498 -21.879505 -13.584139 -0.027091268 0.02511658 0.00029851552 33.9385 -43.69576 21.101837 2.8707993 72.88348 -2.7811162 -2.648835 -29.376474 -5.8577213
0.44447073 68.61095 -0.049259607 -3.733234 -3.020273 3.432297 0.2895062 10.069233 -5.4695506 4.0410705 -8.9276905 -1.3136586 -0.11682835 8.839068 2.8292353 -0.6045698 -15.25328 5.4341903 0.000556569 0.04264794 -0.0163055 -0.031862307 -0.05096569 0.11739782 0.05270623 -0.0111625595 0.018004695 105.64394 45.62479 -54.28713 -28.057364 -40.890514 85.57932 -23.01152 -73.67018 -29.831842 0.030105595 -0.0045083193 -0.13614894 -0.086223416 0.06431146 0.08647862 0.013356957 -0.06343068 0.103286386 7.795133 5.545247 0.3806245 -0.03386193 0.0312471 0.06446786 2.848732 0.9883959 0.16185866 -0.08956598 0.087901026 -0.06809868 10.244252 0.6999272 0.020070141 -0.13117252 -0.030885616 0.019765832 2.2034047 -0.6937364 -0.18278594 0.05942651 0.042556915 -0.011784102 -9.555443 41.916595 -91.98127 23.069265 -17.630678 -47.128296 1.1023566 29.05984 -4.817657 0.11649049 -0.035923786 -0.00069510686 0.07714321 -0.02164477 -0.11562287 0.06767154 -0.0390007 0.049666595 -7.705417 5.4691453 -0.34708476 -0.011789366 -0.06588887 -0.05378852 -2.9421835 0.9503806 -0.07517466 -0.07517863 0.03856578 0.04550388 -10.311492 0.7845536 0.036228593 -0.09944257 -0.021493994 0.049993012 -2.2440028 -0.70646185 0.23856698 -0.05657665 -0.050203834 -0.088765405 -17.456976 -46.215126 -11.75651 -3.7373838 76.75458 4.0528502 -8.525264 -22.010336 -13.473916 -0.0017121303 0.041238528 -0.008175889 33.80952 -43.775417 21.050797 3.0652947 73.41689 -2.91828 -2.4914622 -29.474552 -5.7935643
0.5060019 68.34713 -0.0452308 -3.830601 -2.9241862 3.3363307 0.28614953 9.972568 -5.4445224 4.0214105 -8.910988 -1.2981123 -0.11952049 8.835278 2.853362 -0.64377826 -14.993643 5.456873 0.022614578 0.057209447 -0.019063892 -0.030872999 -0.06277301 0.117271364 0.046786796 0.0037824598 0.011491585 105.824425 45.564972 -54.421253 -28.084047 -40.90449 85.67709 -22.687319 -73.4378 -29.68943 0.035617363 -0.013630966 -0.13976091 -0.08048415 0.0687738 0.07347426 0.019795842 -0.06887032 0.10963952 7.7786183 5.532836 0.3633203 -0.016720932 0.034414493 0.058453996 2.8575351 0.9855189 0.140267 -0.0864558 0.09700926 -0.05939524 10.240333 0.68075204 0.031696778 -0.13673352 -0.020324122 -0.0041389912 2.2078207 -0.6901032 -0.18037248 0.05371245 0.06367348 0.00059845025 -12.7233095 41.140263 -89.40831 22.707582 -17.142859 -46.20929 1.175498 29.517292 -4.9073677 0.10897896 -0.037515804 -0.014428035 0.050262496 -0.009809513 -0.11671824 0.063067615 -0.04203575 0.04598066 -7.680463 5.4621453 -0.3676512 -0.027226854 -0.075127736 -0.062111896 -2.9482594 0.9520568 -0.081584856 -0.07854198 0.03242268 0.04098271 -10.312649 0.77416337 0.02412311 -0.09724813 -0.022310173 0.033335086 -2.233148 -0.7213765 0.22567843 -0.049030602 -0.03927086 -0.097603515 -17.76601 -46.091785 -11.875327 -3.9808502 76.88228 4.0152345 -8.55533 -22.10664 -13.545781 0.011238495 0.05874075 -0.015962236 33.8384 -43.80847 21.088045 3.1837869 73.748405 -3.0140884 -2.457643 -29.604465 -5.5125856
0.5343735 68.195076 -0.0657524 -3.9326577 -2.8979807 3.2943866 0.30315644 9.874126 -5.3905206 3.988448 -8.93944 -1.2703756 -0.12961219 8.815845 2.8589318 -0.65877193 -14.713956 5.4119782 0.035288803 0.06705279 -0.028174829 -0.0380922 -0.07176947 0.10999842 0.035983697 0.015602871 0.007950664 105.96264 45.641193 -54.62212 -28.098665 -40.896267 85.74995 -22.497835 -73.45941 -29.556482 0.041109014 -0.01491295 -0.13426848 -0.073168 0.07086882 0.06590864 0.020531207 -0.06392363 0.11379272 7.7607865 5.517369 0.35156488 6.485243e-05 0.035978656 0.048372973 2.8656952 0.98546696 0.121821605 -0.075471595 0.095798865 -0.04808594 10.237653 0.6731958 0.043807846 -0.13649239 -0.014941557 -0.024710903 2.201934 -0.67800903 -0.1889458 0.052483324 0.07860998 0.0074297637 -15.859976 40.180504 -87.07549 22.321493 -16.65293 -45.261616 1.2720512 29.852566 -4.98945 0.095448114 -0.040617954 -0.021760762 0.026652217 -0.008486772 -0.11448931 0.05479435 -0.03611112 0.044387486 -7.6660566 5.458959 -0.38504443 -0.03848529 -0.07975962 -0.06820858 -2.9443102 0.96031815 -0.0864028 -0.084111854 0.028296554 0.028847186 -10.312379 0.76386625 0.020710628 -0.09188427 -0.02557082 0.019799804 -2.2145116 -0.7354896 0.21516486 -0.046447366 -0.022463389 -0.09645193 -18.001575 -45.847145 -12.093463 -4.1870193 77.03188 4.096039 -8.585259 -22.193174 -13.652553 0.017546482 0.07279243 -0.017991414 33.95653 -43.83309 21.259773 3.2154624 74.08201 -3.157273 -2.4211264 -29.72401 -5.263355
